<svg xmlns="http://www.w3.org/2000/svg" width="102" height="34" viewBox="0 0 102 34">
    <g fill="none" fill-rule="nonzero">
        <g fill="#000">
            <path d="M93.615 0H8.105c-.312 0-.62 0-.931.002-.26.001-.518.006-.781.01-.57.007-1.14.057-1.703.15a5.472 5.472 0 0 0-4.524 4.53 11.044 11.044 0 0 0-.153 1.703c-.008.26-.009.522-.013.783v19.647c.004.264.005.52.013.783.007.57.058 1.14.152 1.702a5.6 5.6 0 0 0 .531 1.619c.258.508.596.972 1.002 1.372.402.405.866.744 1.376 1.002.508.258 1.053.44 1.616.536.563.092 1.132.143 1.703.15.263.006.52.01.781.01l.93.001h85.51c.306 0 .616 0 .922-.002.259 0 .525-.003.784-.009.57-.007 1.138-.057 1.7-.15a5.784 5.784 0 0 0 1.622-.536 5.336 5.336 0 0 0 1.374-1.002 5.436 5.436 0 0 0 1.005-1.372c.256-.51.434-1.056.526-1.619a11.48 11.48 0 0 0 .158-1.702c.003-.264.003-.52.003-.783.006-.309.006-.616.006-.93V8.105c0-.31 0-.62-.006-.927 0-.261 0-.522-.003-.783-.01-.57-.063-1.14-.158-1.702a5.625 5.625 0 0 0-.526-1.618 5.496 5.496 0 0 0-2.38-2.38A5.752 5.752 0 0 0 97.02.164a11.087 11.087 0 0 0-1.7-.15c-.26-.005-.525-.01-.784-.011C94.23 0 93.92 0 93.615 0z"/>
            <path d="M7.178 33.256c-.259 0-.512-.003-.769-.009a10.784 10.784 0 0 1-1.588-.138 5.001 5.001 0 0 1-1.409-.466 4.595 4.595 0 0 1-1.187-.864 4.523 4.523 0 0 1-.867-1.187 4.864 4.864 0 0 1-.462-1.409 10.551 10.551 0 0 1-.141-1.594c-.006-.179-.013-.776-.013-.776V7.178s.008-.588.013-.76c.006-.534.053-1.066.14-1.592.081-.492.237-.968.462-1.413a4.73 4.73 0 0 1 3.46-2.52C5.345.808 5.877.762 6.412.755l.767-.01h87.353l.776.01c.53.007 1.057.053 1.58.139.493.084.972.24 1.42.465a4.755 4.755 0 0 1 2.053 2.057c.221.442.374.914.454 1.402.089.53.138 1.066.148 1.604.003.24.003.5.003.757.006.318.006.622.006.928v17.79c0 .308 0 .61-.006.913 0 .276 0 .53-.004.79-.01.528-.058 1.055-.145 1.576-.08.494-.234.972-.459 1.42a4.658 4.658 0 0 1-.863 1.177 4.601 4.601 0 0 1-1.19.87 4.982 4.982 0 0 1-1.417.467 10.66 10.66 0 0 1-1.59.138c-.248.006-.509.01-.762.01l-.921.001-86.437-.002z"/>
        </g>
        <g fill="#FFF">
            <path d="M21.054 17.256a4.206 4.206 0 0 1 2.003-3.53 4.306 4.306 0 0 0-3.393-1.834c-1.427-.15-2.811.854-3.538.854-.742 0-1.862-.839-3.068-.814a4.518 4.518 0 0 0-3.802 2.319c-1.643 2.846-.417 7.029 1.157 9.33.788 1.126 1.71 2.384 2.914 2.34 1.179-.05 1.62-.752 3.042-.752 1.41 0 1.824.752 3.053.723 1.265-.02 2.062-1.131 2.822-2.268a9.318 9.318 0 0 0 1.29-2.63 4.065 4.065 0 0 1-2.48-3.738zM18.732 10.38a4.142 4.142 0 0 0 .947-2.968 4.214 4.214 0 0 0-2.726 1.41 3.94 3.94 0 0 0-.973 2.858 3.484 3.484 0 0 0 2.752-1.3z"/>
            <g>
                <path d="M35.957 23.069h-4.023l-.967 2.853h-1.704l3.811-10.556h1.77l3.812 10.556h-1.734l-.965-2.853zm-3.607-1.317h3.19l-1.573-4.63h-.044l-1.573 4.63zM46.886 22.074c0 2.392-1.28 3.928-3.212 3.928a2.609 2.609 0 0 1-2.421-1.346h-.037v3.812h-1.58V18.226h1.53v1.28h.029a2.73 2.73 0 0 1 2.45-1.36c1.953 0 3.24 1.543 3.24 3.928zm-1.624 0c0-1.558-.805-2.582-2.034-2.582-1.207 0-2.018 1.046-2.018 2.582 0 1.55.811 2.59 2.018 2.59 1.229 0 2.034-1.018 2.034-2.59zM55.356 22.074c0 2.392-1.28 3.928-3.212 3.928a2.609 2.609 0 0 1-2.421-1.346h-.037v3.812h-1.58V18.226h1.53v1.28h.029a2.73 2.73 0 0 1 2.45-1.36c1.953 0 3.24 1.543 3.24 3.928zm-1.624 0c0-1.558-.805-2.582-2.033-2.582-1.207 0-2.02 1.046-2.02 2.582 0 1.55.813 2.59 2.02 2.59 1.228 0 2.033-1.018 2.033-2.59zM60.954 22.98c.117 1.047 1.134 1.735 2.523 1.735 1.332 0 2.29-.688 2.29-1.631 0-.82-.578-1.31-1.946-1.646l-1.368-.33c-1.938-.468-2.838-1.375-2.838-2.845 0-1.822 1.587-3.073 3.84-3.073 2.231 0 3.76 1.251 3.812 3.073h-1.595c-.095-1.054-.966-1.69-2.239-1.69-1.272 0-2.143.644-2.143 1.58 0 .746.556 1.185 1.917 1.521l1.163.286c2.165.512 3.065 1.382 3.065 2.926 0 1.975-1.573 3.212-4.075 3.212-2.34 0-3.921-1.208-4.023-3.117h1.617zM70.844 16.405v1.821h1.464v1.251h-1.464v4.242c0 .66.293.967.937.967.173-.003.347-.016.52-.037v1.244c-.29.054-.584.078-.878.073-1.558 0-2.166-.586-2.166-2.078v-4.411h-1.119v-1.251h1.12v-1.821h1.586zM73.155 22.074c0-2.421 1.426-3.943 3.65-3.943 2.231 0 3.65 1.522 3.65 3.943 0 2.428-1.411 3.943-3.65 3.943-2.238 0-3.65-1.515-3.65-3.943zm5.691 0c0-1.66-.76-2.641-2.04-2.641s-2.041.988-2.041 2.641c0 1.668.76 2.64 2.04 2.64s2.041-.972 2.041-2.64zM81.758 18.226h1.507v1.31h.036a1.835 1.835 0 0 1 1.851-1.39c.182-.001.364.019.542.058v1.478c-.23-.07-.47-.102-.71-.095a1.592 1.592 0 0 0-1.646 1.77v4.565h-1.58v-7.696zM92.977 23.661c-.213 1.397-1.573 2.356-3.314 2.356-2.239 0-3.628-1.5-3.628-3.906 0-2.414 1.397-3.98 3.562-3.98 2.129 0 3.468 1.463 3.468 3.796v.542h-5.436v.095a2.004 2.004 0 0 0 2.07 2.18 1.741 1.741 0 0 0 1.778-1.083h1.5zm-5.34-2.296h3.847a1.85 1.85 0 0 0-1.887-1.954 1.948 1.948 0 0 0-1.96 1.954z"/>
            </g>
        </g>
        <g fill="#FFF">
            <path d="M32.307 7.421a1.6 1.6 0 0 1 1.672 1.69 1.611 1.611 0 0 1-1.697 1.674h-1.174v1.708h-.788V7.421h1.987zm-1.199 2.672h.991c.678 0 1.076-.352 1.076-.981 0-.644-.384-.995-1.076-.995h-.991v1.976zM35.011 8.666h.727v.586h.057c.167-.417.584-.68 1.033-.65.113-.001.226.01.337.032v.745a2.07 2.07 0 0 0-.422-.046.897.897 0 0 0-.977.9v2.26h-.755V8.666zM41.138 11.46a1.554 1.554 0 0 1-1.659 1.107 1.739 1.739 0 0 1-1.768-1.976 1.765 1.765 0 0 1 1.765-2c1.065 0 1.708.728 1.708 1.93v.264H38.48v.042a1.012 1.012 0 0 0 1.02 1.097c.369.044.728-.14.91-.464h.727zm-2.657-1.234h1.933a.923.923 0 0 0-.942-.991.979.979 0 0 0-.991.991zM42.198 8.666h.727v.608h.056a1.146 1.146 0 0 1 1.143-.682 1.245 1.245 0 0 1 1.324 1.423v2.478h-.755v-2.288c0-.615-.267-.921-.826-.921a.878.878 0 0 0-.914.97v2.24h-.755V8.665zM46.427 10.578a1.813 1.813 0 1 1 3.61 0 1.814 1.814 0 1 1-3.61 0zm2.833 0c0-.83-.373-1.315-1.027-1.315-.656 0-1.026.485-1.026 1.315 0 .836.37 1.317 1.026 1.317.654 0 1.027-.484 1.027-1.317zM52.45 8.592c.86 0 1.423.4 1.497 1.075h-.725c-.07-.28-.344-.46-.773-.46-.421 0-.742.2-.742.499 0 .228.194.372.609.467l.636.148c.728.169 1.069.482 1.069 1.044 0 .72-.672 1.202-1.586 1.202-.91 0-1.504-.411-1.571-1.09h.756c.134.333.478.53.833.478.47 0 .805-.21.805-.517 0-.228-.18-.376-.563-.467l-.667-.155c-.728-.172-1.065-.499-1.065-1.068 0-.679.621-1.156 1.486-1.156zM57.016 7.534c-.014-.2.115-.388.326-.473.21-.085.46-.05.628.087.17.138.224.35.139.537-.086.186-.294.309-.527.31a.59.59 0 0 1-.396-.127.439.439 0 0 1-.17-.334zm.13 1.132h.872v3.827h-.872V8.666zM59.012 11.98l2.105-2.615v-.06h-2.091v-.64h2.994v.552l-2.06 2.577v.06h2.081v.64h-3.03z"/>
        </g>
    </g>
</svg>
