<svg xmlns="http://www.w3.org/2000/svg" width="102" height="34" viewBox="0 0 102 34">
    <g fill="none" fill-rule="evenodd">
        <path fill="#000" fill-rule="nonzero" d="M93.615 0H8.105c-.312 0-.62 0-.931.002-.26.001-.518.006-.781.01-.57.007-1.14.057-1.703.15a5.472 5.472 0 0 0-4.524 4.53 11.044 11.044 0 0 0-.153 1.703c-.008.26-.009.522-.013.783v19.647c.004.264.005.52.013.783.007.57.058 1.14.152 1.702a5.6 5.6 0 0 0 .531 1.619c.258.508.596.972 1.002 1.372.402.405.866.744 1.376 1.002.508.258 1.053.44 1.616.536.563.092 1.132.143 1.703.15.263.006.52.01.781.01l.93.001h85.51c.306 0 .616 0 .922-.002.259 0 .525-.003.784-.009.57-.007 1.138-.057 1.7-.15a5.784 5.784 0 0 0 1.622-.536 5.336 5.336 0 0 0 1.374-1.002 5.436 5.436 0 0 0 1.005-1.372c.256-.51.434-1.056.526-1.619a11.48 11.48 0 0 0 .158-1.702c.003-.264.003-.52.003-.783.006-.309.006-.616.006-.93V8.105c0-.31 0-.62-.006-.927 0-.261 0-.522-.003-.783-.01-.57-.063-1.14-.158-1.702a5.625 5.625 0 0 0-.526-1.618 5.496 5.496 0 0 0-2.38-2.38A5.752 5.752 0 0 0 97.02.164a11.087 11.087 0 0 0-1.7-.15c-.26-.005-.525-.01-.784-.011C94.23 0 93.92 0 93.615 0z"/>
        <path fill="#79C257" fill-rule="nonzero" d="M26.384 14.235c0-.762-.626-1.388-1.388-1.388-.762 0-1.388.626-1.388 1.388v5.784c0 .762.626 1.388 1.388 1.388.762 0 1.388-.626 1.388-1.388v-5.784zm-16.195 0c0-.762-.626-1.388-1.388-1.388-.763 0-1.389.626-1.389 1.388v5.784c0 .762.626 1.388 1.389 1.388.762 0 1.388-.626 1.388-1.388v-5.784zm9.744-6.614l.98-1.77a.19.19 0 0 0-.075-.265.187.187 0 0 0-.265.075l-.994 1.79a6.59 6.59 0 0 0-2.68-.565 6.59 6.59 0 0 0-2.682.565l-.987-1.79a.192.192 0 0 0-.265-.075.192.192 0 0 0-.075.266l.98 1.769c-1.892.98-3.164 2.837-3.164 4.974H23.09c0-2.137-1.273-3.994-3.158-4.974zm-5.893 2.708a.517.517 0 1 1 0-1.034.517.517 0 0 1 0 1.034zm5.716 0a.517.517 0 1 1 0-1.034.517.517 0 0 1 0 1.034zm-9.05 2.756v8.975c0 .83.667 1.498 1.497 1.498h.993v3.062c0 .762.627 1.388 1.389 1.388s1.388-.626 1.388-1.388v-3.063h1.85v3.063c0 .762.627 1.388 1.389 1.388s1.388-.626 1.388-1.388v-3.063h.993c.83 0 1.498-.666 1.498-1.497v-8.975H10.706z"/>
        <path fill="#FFF" d="M33.682 12.443h-.735L31.062 9.44v3.002h-.735v-4.23h.735l1.891 3.012V8.212h.73v4.23zm3.586-.985H35.63l-.343.985h-.764l1.598-4.23h.66l1.6 4.23h-.767l-.346-.985zm-1.432-.593h1.226L36.45 9.11l-.613 1.755zm4.589.657l1.075-3.31h.807l-1.522 4.23h-.712l-1.516-4.23h.804l1.064 3.31zm5.995-1.084c0 .414-.072.778-.215 1.09a1.626 1.626 0 0 1-.615.721 1.69 1.69 0 0 1-.92.252c-.342 0-.648-.084-.916-.252a1.65 1.65 0 0 1-.622-.716 2.514 2.514 0 0 1-.222-1.072v-.238c0-.413.073-.777.22-1.092.146-.316.352-.558.618-.725.266-.168.572-.252.917-.252.344 0 .65.083.916.249.267.165.472.404.618.714.145.311.219.673.22 1.086v.235zm-.736-.22c0-.47-.088-.829-.265-1.079-.178-.25-.429-.375-.754-.375a.867.867 0 0 0-.745.374c-.18.249-.271.6-.275 1.056v.244c0 .465.09.824.272 1.078.18.253.432.38.754.38.325 0 .575-.124.75-.372.176-.247.263-.61.263-1.086v-.22zm1.765 2.225v-4.23h1.25c.373 0 .705.083.994.25.29.166.514.402.673.708.159.306.238.657.238 1.052v.212c0 .4-.08.753-.24 1.058-.16.304-.387.538-.682.703a2.05 2.05 0 0 1-1.016.247H47.45zm.735-3.638v3.05h.48c.385 0 .68-.12.887-.361.206-.241.311-.587.315-1.039v-.235c0-.459-.1-.81-.299-1.052-.2-.242-.489-.363-.869-.363h-.514zm4.226 3.638h-.733v-4.23h.733v4.23zm1.936-.587h1.92v.587h-2.655v-4.23h.735v3.643zm5.204-.398h-1.638l-.343.985h-.764l1.598-4.23h.66l1.6 4.23h-.767l-.346-.985zm-1.432-.593h1.226L58.73 9.11l-.613 1.755zm5.792.99h2.26v.588h-3.149v-.477l2.188-3.16h-2.173v-.594H66.1v.465l-2.19 3.179zm5.594-.397h-1.638l-.343.985h-.764l1.598-4.23h.66l1.6 4.23h-.767l-.346-.985zm-1.432-.593h1.226l-.613-1.755-.613 1.755zM34.483 18.252c1.185 0 2.092.291 2.722.872.63.582.944 1.449.944 2.6v5.169h-1.47v-1.131c-.258.398-.627.703-1.106.913-.479.21-1.047.314-1.703.314-.959 0-1.726-.231-2.302-.694-.576-.463-.864-1.071-.864-1.825s.275-1.36.824-1.817c.549-.457 1.421-.686 2.616-.686H36.6v-.307c0-.668-.194-1.179-.582-1.534-.387-.356-.958-.533-1.711-.533-.506 0-1.002.083-1.486.25-.485.167-.894.39-1.228.67l-.646-1.163a4.688 4.688 0 0 1 1.583-.815 6.623 6.623 0 0 1 1.954-.283zm-.355 7.542c.592 0 1.104-.132 1.534-.395.43-.264.743-.638.937-1.123v-1.195h-2.39c-1.314 0-1.97.442-1.97 1.324 0 .431.166.77.5 1.018.334.248.797.371 1.389.371zm11.041-7.542c1.088 0 1.952.315 2.593.945.64.63.96 1.553.96 2.77v4.926h-1.55v-4.749c0-.829-.2-1.453-.598-1.873-.398-.42-.969-.63-1.711-.63-.84 0-1.502.245-1.987.735-.484.49-.727 1.192-.727 2.108v4.409H40.6v-8.56h1.486v1.292c.312-.441.735-.78 1.268-1.017.533-.237 1.138-.356 1.816-.356zm14.127-3.343v11.984H57.81v-1.357c-.345.474-.78.834-1.308 1.082a4.053 4.053 0 0 1-1.745.371c-.829 0-1.571-.183-2.228-.549a3.934 3.934 0 0 1-1.543-1.542c-.371-.662-.557-1.424-.557-2.285 0-.862.186-1.62.557-2.277A3.95 3.95 0 0 1 52.53 18.8c.657-.366 1.4-.549 2.228-.549a4.1 4.1 0 0 1 1.696.348c.517.231.948.573 1.292 1.025v-4.716h1.55zm-4.41 10.724c.539 0 1.029-.127 1.47-.38a2.663 2.663 0 0 0 1.034-1.066c.248-.457.371-.982.371-1.574 0-.592-.123-1.117-.371-1.575a2.609 2.609 0 0 0-1.034-1.058 2.952 2.952 0 0 0-1.47-.371 2.94 2.94 0 0 0-1.477.371c-.436.248-.78.6-1.034 1.058-.253.458-.38.983-.38 1.575s.127 1.117.38 1.574c.253.458.598.813 1.034 1.066.436.253.929.38 1.478.38zm8.41-5.863c.269-.495.667-.872 1.195-1.13.527-.259 1.168-.388 1.922-.388v1.502a3.027 3.027 0 0 0-.356-.016c-.84 0-1.499.25-1.978.751-.48.5-.719 1.214-.719 2.14v4.264h-1.55v-8.56h1.486v1.437zm8.183 7.22c-.85 0-1.615-.189-2.294-.566a4.1 4.1 0 0 1-1.59-1.558c-.383-.662-.574-1.413-.574-2.253 0-.84.191-1.591.574-2.253a4.043 4.043 0 0 1 1.59-1.55c.679-.372 1.443-.558 2.294-.558.85 0 1.612.186 2.285.557.673.372 1.2.889 1.583 1.55.382.663.573 1.414.573 2.254 0 .84-.191 1.59-.573 2.253a4.114 4.114 0 0 1-1.583 1.558c-.673.377-1.435.565-2.285.565zm0-1.357a2.89 2.89 0 0 0 1.477-.38 2.679 2.679 0 0 0 1.026-1.066c.248-.457.371-.982.371-1.574 0-.592-.123-1.117-.371-1.575a2.624 2.624 0 0 0-1.026-1.058 2.94 2.94 0 0 0-1.477-.371A2.94 2.94 0 0 0 70 19.98c-.436.248-.78.6-1.034 1.058-.253.458-.38.983-.38 1.575s.127 1.117.38 1.574c.253.458.598.813 1.034 1.066.436.253.929.38 1.478.38zm6.164-7.3h1.55v8.56h-1.55v-8.56zm.775-1.647c-.301 0-.552-.097-.75-.291a.953.953 0 0 1-.3-.71c0-.28.1-.52.3-.72.198-.198.449-.298.75-.298.302 0 .552.094.751.283.2.188.299.422.299.702a1.018 1.018 0 0 1-1.05 1.034zm11.38-1.777v11.984h-1.485v-1.357c-.345.474-.78.834-1.308 1.082a4.053 4.053 0 0 1-1.744.371c-.83 0-1.572-.183-2.23-.549a3.934 3.934 0 0 1-1.541-1.542c-.372-.662-.558-1.424-.558-2.285 0-.862.186-1.62.558-2.277a3.95 3.95 0 0 1 1.542-1.535c.657-.366 1.4-.549 2.229-.549a4.1 4.1 0 0 1 1.695.348c.517.231.948.573 1.292 1.025v-4.716h1.55zM85.39 25.633c.538 0 1.028-.127 1.47-.38a2.663 2.663 0 0 0 1.033-1.066c.248-.457.371-.982.371-1.574 0-.592-.123-1.117-.371-1.575a2.609 2.609 0 0 0-1.034-1.058 2.952 2.952 0 0 0-1.47-.371 2.94 2.94 0 0 0-1.477.371c-.436.248-.78.6-1.034 1.058-.253.458-.38.983-.38 1.575s.127 1.117.38 1.574c.253.458.598.813 1.034 1.066.436.253.929.38 1.478.38z"/>
    </g>
</svg>
